<?xml version="1.0" encoding="iso-8859-1"?>
<!-- Generator: Adobe Illustrator 19.0.0, SVG Export Plug-In . SVG Version: 6.00 Build 0)  -->
<svg version="1.1" id="Layer_1" xmlns="http://www.w3.org/2000/svg" xmlns:xlink="http://www.w3.org/1999/xlink" x="0px" y="0px"
	 viewBox="0 0 508 508" style="enable-background:new 0 0 508 508;" xml:space="preserve">
<g>
	<g>
		<path d="M254,0C113.9,0,0,113.9,0,254s113.9,254,254,254s254-113.9,254-254S394.1,0,254,0z M75.7,115.7
			c28.6,36.8,44.3,80.2,47.1,124.2H28.7C31.6,193.3,48.7,150.5,75.7,115.7z M28.7,268.1h94.1c-2.8,44-18.4,87.4-47.1,124.2
			C48.7,357.6,31.6,314.7,28.7,268.1z M239.9,479.3c-56.5-3.5-107.4-27.8-145.2-65.4c34.7-42.8,53.5-93.9,56.4-145.8h88.8V479.3z
			 M239.9,239.9h-88.8c-2.9-51.8-21.7-103-56.4-145.7c37.7-37.6,88.7-62,145.2-65.5V239.9z M479.3,239.9h-94
			c2.8-44,18.4-87.4,47-124.2C459.3,150.5,476.4,193.2,479.3,239.9z M268.1,28.7c56.5,3.5,107.5,27.9,145.3,65.5
			C378.7,137,359.9,188,357,239.9h-88.9V28.7z M268.1,479.3V268.1h88.8c2.9,51.8,21.7,103,56.4,145.7
			C375.6,451.4,324.6,475.8,268.1,479.3z M432.3,392.2c-28.6-36.7-44.3-80.1-47-124.1h94C476.4,314.7,459.3,357.5,432.3,392.2z"/>
	</g>
</g>
<g>
</g>
<g>
</g>
<g>
</g>
<g>
</g>
<g>
</g>
<g>
</g>
<g>
</g>
<g>
</g>
<g>
</g>
<g>
</g>
<g>
</g>
<g>
</g>
<g>
</g>
<g>
</g>
<g>
</g>
</svg>
