<?xml version="1.0" encoding="iso-8859-1"?>
<!-- Generator: Adobe Illustrator 16.0.0, SVG Export Plug-In . SVG Version: 6.00 Build 0)  -->
<!DOCTYPE svg PUBLIC "-//W3C//DTD SVG 1.1//EN" "http://www.w3.org/Graphics/SVG/1.1/DTD/svg11.dtd">
<svg version="1.1" id="Capa_1" xmlns="http://www.w3.org/2000/svg" xmlns:xlink="http://www.w3.org/1999/xlink" x="0px" y="0px"
	 width="284.907px" height="284.907px" viewBox="0 0 284.907 284.907" style="enable-background:new 0 0 284.907 284.907;"
	 xml:space="preserve">
<g>
	<g>
		<rect x="94.521" y="47.488" width="95.859" height="52.856"/>
		<path d="M75.708,123.636h133.486c2.968,0,5.376-2.409,5.376-5.375V29.567c0-2.968-2.408-5.375-5.376-5.375h-50.541L147.184,2.834
			c-0.897-1.677-2.611-2.753-4.514-2.827c-1.922-0.103-3.698,0.848-4.733,2.444l-14.087,21.74H75.708
			c-2.968,0-5.375,2.407-5.375,5.375v88.694C70.332,121.228,72.739,123.636,75.708,123.636z M142.018,15.934l4.433,8.262h-9.786
			L142.018,15.934z M83.77,42.113c0-2.968,2.407-5.375,5.375-5.375h106.611c2.966,0,5.375,2.407,5.375,5.375v63.607
			c0,2.966-2.409,5.375-5.375,5.375H89.146c-2.968,0-5.375-2.41-5.375-5.375V42.113z"/>
		<path d="M196.653,172.012c-2.966,0-5.376,2.41-5.376,5.376c0,27.665-22.503,50.175-50.167,50.175
			c-27.662,0-50.168-22.51-50.168-50.175c0-2.966-2.41-5.376-5.375-5.376c-1.919,0-3.533,1.067-4.479,2.584v-6.531
			c4.224-2.016,7.166-6.298,7.166-11.286c0-6.918-5.63-12.538-12.541-12.538c-6.914,0-12.542,5.63-12.542,12.538
			c0,4.988,2.945,9.271,7.166,11.286v111.457c0,2.971,2.407,5.373,5.375,5.373c2.966,0,5.375-2.402,5.375-5.373v-92.123
			c4.801,28.836,29.849,50.915,60.028,50.915c33.591,0,60.919-27.33,60.919-60.926C202.028,174.422,199.621,172.012,196.653,172.012
			z"/>
		<path d="M62.269,172.012c-2.968,0-5.375,2.41-5.375,5.376c0,27.665-22.506,50.175-50.168,50.175c-2.968,0-5.375,2.404-5.375,5.375
			c0,2.961,2.407,5.376,5.375,5.376c33.591,0,60.92-27.33,60.92-60.926C67.645,174.422,65.234,172.012,62.269,172.012z"/>
		<path d="M221.741,156.789c0-6.919-5.627-12.543-12.54-12.543c-6.915,0-12.543,5.625-12.543,12.543
			c0,4.978,2.945,9.26,7.167,11.286v111.456c0,2.961,2.408,5.376,5.376,5.376c2.966,0,5.373-2.415,5.373-5.376V168.064
			C218.791,166.049,221.741,161.767,221.741,156.789z"/>
		<path d="M278.183,227.562c-27.664,0-50.169-22.51-50.169-50.175c0-2.966-2.41-5.376-5.376-5.376s-5.375,2.41-5.375,5.376
			c0,33.596,27.329,60.926,60.92,60.926c2.966,0,5.376-2.415,5.376-5.376C283.559,229.967,281.148,227.562,278.183,227.562z"/>
	</g>
</g>
<g>
</g>
<g>
</g>
<g>
</g>
<g>
</g>
<g>
</g>
<g>
</g>
<g>
</g>
<g>
</g>
<g>
</g>
<g>
</g>
<g>
</g>
<g>
</g>
<g>
</g>
<g>
</g>
<g>
</g>
</svg>
